<?xml version="1.0" encoding="utf-8"?>
<!-- Generator: Adobe Illustrator 19.2.0, SVG Export Plug-In . SVG Version: 6.00 Build 0)  -->
<svg version="1.1" id="Layer_1" xmlns="http://www.w3.org/2000/svg" xmlns:xlink="http://www.w3.org/1999/xlink" x="0px" y="0px"
	 viewBox="0 0 32 32" enable-background="new 0 0 32 32" xml:space="preserve">
<path id="path7712" fill="#000000" d="M32,19.8v0.9l-13.2-1.9v7.5l3.8,3.8c0,0.9-0.9,1.9-1.9,1.9
	c-3.8,0-9.4,0-9.4,0c-0.9,0-1.9-0.9-1.9-1.9l3.8-3.8v-7.5L0,20.7v-0.9c0-0.9,0.6-1.2,0.9-1.4l12.2-7.1c0,0,0-0.6,0-3.8
	C13.2,5.6,14.1,0,16,0s2.8,5.6,2.8,7.5c0,3.1,0,3.8,0,3.8l12.2,7.1C31.6,18.7,32,18.8,32,19.8z"/>
</svg>
