<?xml version="1.0" encoding="utf-8"?>
<!-- Generator: Adobe Illustrator 19.2.0, SVG Export Plug-In . SVG Version: 6.00 Build 0)  -->
<svg version="1.1" id="Layer_1" xmlns="http://www.w3.org/2000/svg" xmlns:xlink="http://www.w3.org/1999/xlink" x="0px" y="0px"
	 viewBox="0 0 32 32" enable-background="new 0 0 32 32" xml:space="preserve">
<path id="path5421" fill="#000000" d="M20,3.4c-0.9,0.1-1.1,1.8-0.2,2.1l3.7,1.5v3.2H11.8V8.4h2.3
	c0.6,0,1.1-0.5,1.1-1.1s-0.5-1.1-1.1-1.1H7.6c-0.1,0-0.2,0-0.3,0C6.7,6.4,6.3,7,6.4,7.5c0.1,0.6,0.7,1,1.2,0.9h2.5v1.7l-1.8,5.3
	c-0.5-0.1-1-0.2-1.6-0.2c-3.7,0-6.7,3-6.7,6.7s3,6.7,6.7,6.7s6.7-3,6.7-6.7c0-0.5-0.1-1-0.2-1.5h1.9c0.3,0,0.7-0.2,0.8-0.5l5.7-8.2
	h0.2h1.7l1.2,3.4c-3.5,0.3-6.2,3.1-6.2,6.7c0,3.7,3,6.7,6.7,6.7s6.7-3,6.7-6.7c0-3.1-2.1-5.6-4.9-6.4l-1.8-5.4V6.2
	c0-0.2-0.1-0.4-0.2-0.5c0,0,0,0,0-0.1c0-0.1-0.1-0.1-0.1-0.2c-0.1-0.1-0.1-0.1-0.2-0.2c0,0-0.1,0-0.1-0.1c0,0-0.1,0-0.1-0.1
	c-0.1,0-0.1-0.1-0.2-0.1L24.4,5l-0.7-0.3l-3.1-1.3c-0.1,0-0.3,0-0.4-0.1C20.1,3.4,20.1,3.4,20,3.4L20,3.4z M11.8,11.8h7.4l-4.6,6.5
	h-2.2c-0.5-0.8-1.2-1.5-2-2.1L11.8,11.8z M6.7,17.7c2.3,0,4.2,1.9,4.2,4.2s-1.9,4.2-4.2,4.2s-4.2-1.9-4.2-4.2S4.4,17.7,6.7,17.7z
	 M25.3,17.7c2.3,0,4.2,1.9,4.2,4.2s-1.9,4.2-4.2,4.2s-4.2-1.9-4.2-4.2c0-0.3,0-0.6,0.1-0.8C21.6,19.1,23.2,17.7,25.3,17.7z"/>
</svg>
