<?xml version="1.0" encoding="utf-8"?>
<!-- Generator: Adobe Illustrator 19.2.0, SVG Export Plug-In . SVG Version: 6.00 Build 0)  -->
<svg version="1.1" id="Layer_1" xmlns="http://www.w3.org/2000/svg" xmlns:xlink="http://www.w3.org/1999/xlink" x="0px" y="0px"
	 viewBox="0 0 32 32" enable-background="new 0 0 32 32" xml:space="preserve">
<path id="path6" fill="#000000" d="M5.1,5.1L3.4,8.4l1.7,5.1c-1.7,1.7-1.7,3.4-1.7,5.1L0,26.9h3.4c-0.8-2.3,1.3-4,2.5-5.9l-0.8,5.9
	h3.4c-1.7-2.7,0.7-5.7,1.7-8.4c1.7,0,2.5,1.7,6.7,1.7l-1.7,6.7h3.4c-1.5-1.9-0.1-3.1,0.8-5.1l2.5,5.1h3.4c-2.7-1.5-2.7-3.9-3.4-6.7
	l0.8-4.2l-3.4-5.1l-2.5,0.8H7.6L5.1,8.4l1.7-3.4H5.1z M25.3,5.1l-3.4,1.7l-1.7,3.4l3.4,5.1c0.8-1.7,3.4-1.7,7.6-1.7l0.8-2.5
	l-6.7-3.4V6.7l1.7-1.7H25.3z"/>
</svg>
