<?xml version="1.0" encoding="utf-8"?>
<!-- Generator: Adobe Illustrator 19.2.0, SVG Export Plug-In . SVG Version: 6.00 Build 0)  -->
<svg version="1.1" id="Layer_1" xmlns="http://www.w3.org/2000/svg" xmlns:xlink="http://www.w3.org/1999/xlink" x="0px" y="0px"
	 viewBox="0 0 32 32" enable-background="new 0 0 32 32" xml:space="preserve">
<path id="path8421-9-1-0-1" fill="#000000" d="M12,0c-0.9,0-1.6,0.7-1.6,1.6H7.2
	c-0.9,0-1.6,0.7-1.6,1.6v9.7l-3.2,1.5l3.2,6.4V24c2.4,0,4,1.6,5.6,1.6c1.6,0,2.4-1.6,4.8-1.6s3.2,1.6,4.8,1.6c1.6,0,3.2-1.6,5.6-1.6
	v-3.2l3.2-6.4l-3.2-1.5V3.2c0-0.9-0.7-1.6-1.6-1.6h-3.2C21.6,0.7,20.9,0,20,0H12z M8.8,4.8h14.4v6.6L16,8l-7.2,3.4V4.8z M5.6,27.2
	c-1.1,0-2.1,0.6-3.2,1v3.2c0,0,1.6-1,3.2-1c1.6,0,3.2,1.6,5.6,1.6s3.2-1.5,4.8-1.6c1.6,0,2.4,1.6,4.8,1.6s4-1.6,5.6-1.6
	c1.1,0,3.2,1,3.2,1v-3.2c-1-0.4-2.1-1-3.2-1c-2.4,0-4,1.6-5.6,1.6c-1.6,0-2.4-1.6-4.8-1.6s-3.2,1.6-4.8,1.6
	C9.6,28.8,8,27.2,5.6,27.2z"/>
</svg>
