<?xml version="1.0" encoding="utf-8"?>
<!-- Generator: Adobe Illustrator 19.2.0, SVG Export Plug-In . SVG Version: 6.00 Build 0)  -->
<svg version="1.1" id="Layer_1" xmlns="http://www.w3.org/2000/svg" xmlns:xlink="http://www.w3.org/1999/xlink" x="0px" y="0px"
	 viewBox="0 0 32 32" enable-background="new 0 0 32 32" xml:space="preserve">
<path id="path5304" fill="#000000" d="M7.6,0C6.7,0,6.7,0.8,6.7,0.8v10.1c0,0.8,0.8,1.7,1.7,2.5
	s0.8,1.7,0.8,2.5c0,0,0,1.7,0,2.5S8.4,29.5,8.4,29.5C8.4,30.3,9.3,32,10.9,32s2.6-1.7,2.5-2.5c0,0-0.8-10.1-0.8-10.9s0-2.5,0-2.5
	c0-0.8,0-1.7,0.8-2.5c0.8-0.8,1.7-1.7,1.7-2.5V0.8c0,0,0-0.8-0.8-0.8c-0.8,0-0.8,0.8-0.8,0.8v7.6c0,0,0,0.8-0.8,0.8
	c-0.8,0-0.8-0.8-0.8-0.8V0.8c0,0,0-0.8-0.8-0.8c-0.8,0-0.8,0.8-0.8,0.8v7.6c0,0,0,0.8-0.8,0.8S8.4,8.4,8.4,8.4V0.8
	C8.4,0.8,8.4,0,7.6,0z M25.3,0c-1.7,0-4.8,0.4-5.9,2.5c-0.8,1.7-0.8,5.9-0.8,7.6v8.4c0,0.8,0.8,1.7,1.7,1.7h1.7v10.1
	c0,0.8,0.8,1.7,1.7,1.7s1.7-0.8,1.7-1.7V0z"/>
</svg>
