<?xml version="1.0" encoding="utf-8"?>
<!-- Generator: Adobe Illustrator 19.2.0, SVG Export Plug-In . SVG Version: 6.00 Build 0)  -->
<svg version="1.1" id="Layer_1" xmlns="http://www.w3.org/2000/svg" xmlns:xlink="http://www.w3.org/1999/xlink" x="0px" y="0px"
	 viewBox="0 0 32 32" enable-background="new 0 0 32 32" xml:space="preserve">
<path id="path3088" fill="#000000" d="M32,0h-2c-4,0-9.3,1.3-15,7c-6,6-9,13-9,13c0,2,4,6,6,6
	c0,0,6.5-2.5,12.5-8.5C30.9,11.1,32,6,32,2V0z M21,8c1.7,0,3,1.3,3,3s-1.3,3-3,3c-1.7,0-3-1.3-3-3S19.3,8,21,8z M2,12l-2,6h5l3.5-6
	H2z M20,23.5L14,27v5l6-2V23.5z"/>
</svg>
