<?xml version="1.0" encoding="utf-8"?>
<!-- Generator: Adobe Illustrator 19.2.0, SVG Export Plug-In . SVG Version: 6.00 Build 0)  -->
<svg version="1.1" id="Layer_1" xmlns="http://www.w3.org/2000/svg" xmlns:xlink="http://www.w3.org/1999/xlink" x="0px" y="0px"
	 viewBox="0 0 32 32" enable-background="new 0 0 32 32" xml:space="preserve">
<path id="path16479" fill="#000000" d="M9.7,0C7.4,0,5.5,1.9,5.5,4.2s1.9,4.2,4.2,4.2
	s4.2-1.9,4.2-4.2S12,0,9.7,0z M23.2,0c-2.3,0-4.2,1.9-4.2,4.2s1.9,4.2,4.2,4.2s4.2-1.9,4.2-4.2S25.5,0,23.2,0z M8.8,10.1
	c-1.7,0-3.4,1.7-3.4,3.4v3.4l-2.5,7.6c0,0.8,0.8,0.8,1.7,0.8h2.5V32h5.1v-6.7h2.5c0.8,0,1.7,0,1.7-0.8l-2.5-7.6v-3.4
	c0-1.7-1.7-3.4-3.4-3.4H8.8z M18.9,10.1c-0.8,0-1.7,0.8-1.7,1.7l3.4,10.1v3.4V32h5.1v-6.7v-3.4l3.4-10.1c0-0.8-0.8-1.7-1.7-1.7H18.9
	z"/>
</svg>
