<?xml version="1.0" encoding="utf-8"?>
<!-- Generator: Adobe Illustrator 19.2.0, SVG Export Plug-In . SVG Version: 6.00 Build 0)  -->
<svg version="1.1" id="Layer_1" xmlns="http://www.w3.org/2000/svg" xmlns:xlink="http://www.w3.org/1999/xlink" x="0px" y="0px"
	 viewBox="0 0 32 32" enable-background="new 0 0 32 32" xml:space="preserve">
<path id="path10847-43-3-9" fill="#000000" d="M23.6,0c-3.4,5.1-6.4,8.4-10.1,11.8
	C9.9,15,3.4,13.9,3.4,18.5v1.7c0,1.7,1.7,3.3,1.7,5.1v1.7c0,2.5-0.8,2.5-1.7,5.1h1.7l3.4-5.1V32h1.7v-2.5v-7.6h3.4V32h1.7v-5.1v-2.5
	l1.7,2.5l1.7,5.1h1.7l-2.6-10.6c1-0.6,0.9-1.7,0.9-2.9c0-1.6,0-3.4,0-5.1l6.7-9.3L27.7,5c0.5,0.2,0.9,0.1,0.9-0.3
	c0-0.8-0.6-1-0.8-1.3L23.6,0z"/>
</svg>
