<?xml version="1.0" encoding="utf-8"?>
<!-- Generator: Adobe Illustrator 19.1.0, SVG Export Plug-In . SVG Version: 6.00 Build 0)  -->
<svg version="1.1" id="Layer_1" xmlns="http://www.w3.org/2000/svg" xmlns:xlink="http://www.w3.org/1999/xlink" x="0px" y="0px"
	 viewBox="0 0 32 32" enable-background="new 0 0 32 32" xml:space="preserve">
<g>
	<path fill="none" d="M14.4,10.4c0-3.1-2.5-4-5.6-4s-5.6,0.9-5.6,4c0,0.3,0,0.5,0.1,0.8H3.2v12.6c1.5-0.9,3.5-1.4,5.6-1.4
		s4.1,0.4,5.6,1.4"/>
	<path fill="none" d="M23.2,6.4c-3.1,0-5.6,0.9-5.6,4c0,0.3,0,0.5,0.1,0.8h-0.1v12.6c1.5-0.9,3.5-1.4,5.6-1.4s4.1,0.4,5.6,1.4V11.2
		h-0.1c0-0.3,0.1-0.5,0.1-0.8C28.8,7.3,26.3,6.4,23.2,6.4z"/>
	<path d="M31.6,8c-1.1-3.2-4.4-4.8-8.4-4.8c-3,0-5.6,0.9-7.2,2.7c-1.6-1.8-4.2-2.7-7.2-2.7c-4,0-7.3,1.6-8.4,4.8H0v20.8h3.3
		c0.4-2.4,2.7-3.2,5.5-3.2s5.1,0.8,5.5,3.2h3.4c0.4-2.4,2.7-3.2,5.5-3.2s5.1,0.8,5.5,3.2H32V8H31.6z M14.4,23.8
		c-1.5-0.9-3.5-1.4-5.6-1.4s-4.1,0.4-5.6,1.4V11.2h0.1c0-0.3-0.1-0.5-0.1-0.8c0-3.1,2.5-4,5.6-4s5.6,0.9,5.6,4 M17.6,10.4
		c0-3.1,2.5-4,5.6-4s5.6,0.9,5.6,4c0,0.3,0,0.5-0.1,0.8h0.1v12.6c-1.5-0.9-3.5-1.4-5.6-1.4s-4.1,0.4-5.6,1.4"/>
</g>
</svg>
