<svg xmlns="http://www.w3.org/2000/svg" viewBox="200 0 560 560" enable-background="new 200 0 560 560"><path fill="#231F20" d="M609.1 258.2c19.9-26.9 31.6-60.2 31.6-96.2C640.7 85 587 20.6 515 4.1 503.4 1.4 491.4 0 479 0h-.2c-89.5 0-162 72.5-162 162 0 36.2 11.9 69.6 31.9 96.6C260.3 305.4 200 397.9 200 504.8c0 29.3 124.9 53.1 279 53.1s279-23.8 279-53.1c0-107-60.4-199.9-148.9-246.6zm-206-171.9c20.2-20.2 47-31.3 75.6-31.3 28.6 0 55.5 11.1 75.7 31.3 20.2 20.2 31.3 47.1 31.3 75.7s-11.1 55.5-31.3 75.7c-20.2 20.2-47.1 31.3-75.7 31.3s-55.5-11.1-75.7-31.3c-20.2-20.2-31.3-47.1-31.3-75.7s11.1-55.5 31.4-75.7zm236.7 406.4C593.5 499.4 537.9 503 479 503c-58.9 0-114.5-3.5-160.8-10.2-30.9-4.5-50.2-9.3-61.8-13 3.7-33.1 14.8-65 32.6-93.3 21.7-34.5 52.3-62.5 88.7-81l13.7-7c25.2 16.1 55.2 25.5 87.3 25.5 32.4 0 62.5-9.5 87.8-25.8l13.9 7.1c36.3 18.5 66.9 46.5 88.6 81.1 17.8 28.4 28.8 60.3 32.5 93.4-11.5 3.7-30.9 8.5-61.7 12.9z"/></svg>